<svg xmlns="http://www.w3.org/2000/svg" viewBox="0 0 222.29 169.81"><defs><style>.cls-1{fill:#ee4238;}.cls-2{fill:#e8e8e8;}.cls-3{fill:#ffcb40;}.cls-4{fill:#fbe347;}.cls-5{fill:#e18e4b;}.cls-6{fill:#f03f35;}.cls-7{fill:#fefefc;}.cls-8{fill:none;stroke:#48c008;stroke-linecap:round;stroke-linejoin:round;stroke-width:3px;}.cls-9{fill:#ed4137;}.cls-10{fill:#020202;}</style></defs><title>logo</title><g id="Layer_2" data-name="Layer 2"><g id="OBJECTS"><path class="cls-1" d="M59.21,80.2A68.17,68.17,0,0,0,76.91,105h0a68.09,68.09,0,0,0,17.5,25S90.94,161.37,69,169.81a62.45,62.45,0,0,1,.86-9.13s-29.06,20.54-68.22-2.37h0v0h0C-7,113.71,22.1,93.17,22.1,93.17a62.93,62.93,0,0,1-8.89-2.23C28.51,73,59.21,80.2,59.21,80.2Z"/><path class="cls-2" d="M53.45,97.47a44.15,44.15,0,0,0,11.48,16.1h0a44.17,44.17,0,0,0,11.34,16.2S74,150.11,59.77,155.59a40.58,40.58,0,0,1,.56-5.93S41.48,163,16.08,148.13h0c-5.53-28.9,13.32-42.23,13.32-42.23a41.08,41.08,0,0,1-5.77-1.44C33.54,92.82,53.45,97.47,53.45,97.47Z"/><path class="cls-1" d="M133.88,160.63c-10.41-6-21-21.25-33.82-39.34-11.26-16-10.87-30.74,5.32-34.31,37.72-8.3,43.73,5.76,45.79,25C153.36,132.48,144.9,167,133.88,160.63Z"/><path class="cls-1" d="M43.47,32.62c2.2,11.82,13,26.94,25.77,45,11.27,15.95,25.34,20.52,34.11,6.47C123.8,51.34,112.55,41,95.11,32.6,76.52,23.68,41.14,20.11,43.47,32.62Z"/><path class="cls-3" d="M222.27,2.21h0C205,95.67,115.09,141.78,107.82,143.25c-2.7-1.17-14.25-23.91-26.68-41.28h0C68.91,84.44,51.33,66,51.12,63,54.93,56.67,128.4-12.66,222.27,2.21Z"/><path class="cls-4" d="M187.33,26.91A37.86,37.86,0,0,1,180.63.55a171.85,171.85,0,0,1,41.53,1.73l0,0v0h0l0,0A172.57,172.57,0,0,1,210,42,37.87,37.87,0,0,1,187.33,26.91Z"/><path class="cls-5" d="M57.41,56.19c.4,3.32,9.52,24.9,23.79,45.41h0l0,0h0c14.56,20.3,32,36.34,35,37.83-1.62,2.32-14.41,11.45-18,12-3-1.49-20.09-17.08-34.65-37.38h0l0,0h0C49.3,93.55,40.3,72.24,39.9,68.91,41.64,65.69,55.3,56.3,57.41,56.19Z"/><path class="cls-6" d="M162.48,94.19a5,5,0,1,0-7,.47A5,5,0,0,0,162.48,94.19Z"/><path class="cls-6" d="M129.64,116.77a5,5,0,1,0-7,.47A5,5,0,0,0,129.64,116.77Z"/><path class="cls-6" d="M119.38,36.24a5,5,0,1,0-7,.47A5,5,0,0,0,119.38,36.24Z"/><path class="cls-6" d="M175.11,24.78a5,5,0,1,0-7,.47A5,5,0,0,0,175.11,24.78Z"/><path class="cls-7" d="M122,89.61a13.44,13.44,0,0,1,.73-4.62,12.88,12.88,0,0,1,5.81-6.88l0,0,.16-.07.15-.09v0a12.88,12.88,0,0,1,8.95-1.1,13.43,13.43,0,0,1,4.27,1.91c1.63,1.1,6.07,4.38,2.45,6.14-1.7.83-3.37,1.71-5.06,2.56.17-.09.94,1.54,1,1.63,1.15,2,2.21,4.11,3.23,6.22,1.19,2.45-1.46,3.46-3.25,4.34s-4,2.68-5.42.35c-1.21-2-2.35-4-3.45-6.1,0-.09-1-1.63-.83-1.72-1.64.94-3.29,1.87-4.91,2.83C122.38,97.08,122.05,91.57,122,89.61Z"/><path class="cls-8" d="M105.84,90.35c-2.19,3.24-2.19,8.66.43,11.63,3.48,3.94,8.68.7,11.44-2.48"/><path class="cls-8" d="M152.93,27.69c-1.05-3.76-5.18-7.29-9.14-7.22-5.25.09-6.16,6.15-5.54,10.31"/><path class="cls-1" d="M86.32,79.49a19.89,19.89,0,1,0-.77-28.23A19.91,19.91,0,0,0,86.32,79.49Zm4.13-12a2.7,2.7,0,1,1-3.82.09A2.7,2.7,0,0,1,90.45,67.48Zm19.73-4.85a3.18,3.18,0,1,1,4.5-.1A3.2,3.2,0,0,1,110.18,62.63Zm-10.7-8.39a2.56,2.56,0,1,1,3.62-.08A2.57,2.57,0,0,1,99.48,54.24ZM108.22,75a2.3,2.3,0,0,1-.09-3.23,2.29,2.29,0,1,1,.09,3.23ZM97.69,67.61a3.18,3.18,0,1,1,4.5-.1A3.19,3.19,0,0,1,97.69,67.61Zm-9.56-8.07a2.28,2.28,0,1,1,3.22-.07A2.29,2.29,0,0,1,88.13,59.54Zm7,19.95a3.73,3.73,0,1,1,5.28-.12A3.74,3.74,0,0,1,95.13,79.49Z"/><path class="cls-9" d="M130.64,64c2.57-3.13,5.51-6.15,9.43-7.48,6.25-2.11,13.05-.53,18.72,2.44,2.88,1.51,6.37,3.47,7.81,6.55a8,8,0,0,1,.57,5.59c-1.63,4.83-7.63.84-10-1A39.71,39.71,0,0,0,145.91,64a31.35,31.35,0,0,0-8.62-1.62,14.39,14.39,0,0,0-6.68,1.66Z"/><path class="cls-10" d="M188.27,62c5.33-.4,9.42-3.58,9.14-7.09s-4.84-6-10.17-5.63-9.42,3.58-9.14,7.09S182.93,62.44,188.27,62Z"/><path class="cls-10" d="M131.8,48c3.72-3.84,4.68-8.94,2.15-11.4s-7.59-1.35-11.31,2.49S118,48,120.49,50.48,128.08,51.82,131.8,48Z"/><path class="cls-7" d="M164.82,52.85a10.54,10.54,0,0,1-3.65-.19,10.22,10.22,0,0,1-5.9-4l0,0a.75.75,0,0,0-.07-.12s-.06-.07-.08-.11h0a10.05,10.05,0,0,1-.58-10.39c.7-1.37,2.84-5.11,4.55-2.43.8,1.25,1.63,2.49,2.45,3.74-.08-.13,1.11-.87,1.18-.92,1.49-1.06,3-2.06,4.54-3,1.8-1.13,2.84.85,3.69,2.17s2.45,2.91.76,4.21c-1.45,1.12-2.91,2.18-4.43,3.21-.06,0-1.17.91-1.26.79.89,1.2,1.76,2.41,2.66,3.6C170.61,51.94,166.35,52.66,164.82,52.85Z"/></g></g></svg>