<?xml version="1.0" standalone="no"?>
<!DOCTYPE svg PUBLIC "-//W3C//DTD SVG 20010904//EN"
 "http://www.w3.org/TR/2001/REC-SVG-20010904/DTD/svg10.dtd">
<svg version="1.0" xmlns="http://www.w3.org/2000/svg"
 width="888.000000pt" height="888.000000pt" viewBox="0 0 888.000000 888.000000"
 preserveAspectRatio="xMidYMid meet">
<metadata>
Created by potrace 1.11, written by Peter Selinger 2001-2013
</metadata>
<g transform="translate(0.000000,888.000000) scale(0.100000,-0.100000)"
fill="#000000" stroke="none">
<path d="M7400 7821 c0 -3 -24 -6 -52 -5 -47 0 -79 -4 -168 -20 -14 -2 -54 -7
-90 -11 -89 -8 -150 -15 -180 -20 -14 -2 -47 -7 -75 -10 -27 -3 -75 -10 -105
-15 -30 -5 -71 -12 -90 -15 -19 -3 -42 -8 -50 -10 -8 -2 -31 -6 -50 -9 -19 -3
-46 -8 -60 -11 -14 -3 -38 -7 -55 -9 -16 -3 -68 -14 -115 -25 -47 -11 -96 -22
-110 -25 -14 -2 -72 -16 -130 -31 -104 -27 -121 -31 -160 -39 -11 -3 -24 -7
-28 -10 -5 -3 -19 -7 -33 -10 -13 -3 -55 -14 -94 -26 -38 -12 -77 -23 -85 -25
-28 -6 -385 -125 -405 -135 -39 -18 -262 -100 -274 -100 -6 0 -11 -5 -11 -10
0 -6 -3 -9 -7 -8 -5 0 -17 -2 -28 -7 -11 -4 -58 -24 -105 -43 -47 -19 -89 -37
-95 -41 -5 -4 -26 -14 -45 -21 -19 -8 -82 -36 -140 -63 -58 -27 -114 -53 -125
-58 -11 -5 -27 -13 -35 -18 -8 -5 -69 -36 -135 -68 -138 -69 -379 -200 -512
-280 -91 -54 -93 -54 -130 -42 -21 7 -42 16 -48 19 -9 6 -227 76 -250 80 -3 1
-19 6 -37 11 -40 13 -104 29 -138 35 -14 3 -43 10 -65 16 -42 11 -62 15 -110
23 -16 3 -43 7 -60 10 -16 3 -46 8 -65 11 -19 2 -48 8 -65 11 -16 3 -43 7 -60
8 -16 2 -66 7 -110 11 -95 10 -417 11 -493 1 -45 -6 -92 -16 -147 -30 -92 -25
-205 -94 -205 -126 0 -6 -4 -11 -9 -11 -13 0 -32 -90 -26 -129 9 -64 46 -193
82 -284 38 -97 106 -242 125 -264 6 -7 7 -13 4 -13 -4 0 5 -17 19 -37 14 -21
25 -41 25 -45 0 -4 35 -65 78 -135 43 -71 85 -139 92 -153 8 -14 18 -27 21
-30 19 -17 17 -41 -4 -49 -48 -19 -377 -249 -377 -263 0 -5 -4 -8 -10 -8 -12
0 -25 -11 -122 -104 l-77 -74 18 -64 c24 -82 84 -236 117 -300 19 -35 11 -39
-84 -44 -109 -6 -219 -18 -272 -31 -14 -3 -32 -7 -40 -8 -163 -25 -413 -125
-556 -223 -110 -74 -257 -213 -233 -220 8 -2 23 -7 34 -12 26 -11 135 -42 160
-45 11 -1 29 -5 40 -8 11 -3 36 -9 55 -12 19 -3 37 -9 40 -12 3 -3 -15 -21
-40 -42 -196 -159 -408 -433 -546 -706 -79 -157 -163 -370 -179 -453 -2 -9 -4
-17 -5 -17 -2 0 -7 -19 -15 -57 -3 -15 -10 -39 -15 -53 -5 -14 -8 -25 -5 -25
2 0 0 -14 -5 -32 -5 -17 -12 -50 -15 -72 -3 -23 -11 -70 -16 -106 -18 -116
-23 -211 -23 -405 0 -199 10 -348 30 -455 2 -14 6 -43 9 -65 14 -108 18 -117
72 -144 27 -14 56 -31 66 -39 9 -9 17 -12 17 -7 0 4 6 2 14 -4 12 -10 133 -73
146 -76 3 -1 25 -10 50 -22 104 -49 373 -147 422 -154 4 0 31 -7 60 -16 29 -8
67 -16 83 -19 17 -2 44 -8 60 -13 17 -6 51 -12 77 -16 26 -3 53 -7 60 -10 12
-3 92 -13 188 -21 58 -5 353 -5 405 1 22 2 65 6 95 10 30 3 64 7 76 10 12 3
39 7 60 10 21 4 55 10 74 15 19 5 46 11 60 13 34 6 166 45 210 61 19 8 40 15
45 16 11 3 17 5 105 40 77 30 164 73 168 82 2 4 9 8 16 8 7 0 33 13 59 30 26
16 50 30 52 30 4 0 -1 -59 -9 -97 -3 -13 -8 -65 -11 -116 -4 -52 -8 -106 -9
-120 -2 -15 -2 -27 -1 -27 2 0 33 13 69 29 73 33 207 117 264 165 58 49 175
168 207 211 17 22 33 42 36 45 32 26 200 321 241 425 9 22 23 57 32 77 l16 37
28 -27 c67 -63 111 -102 167 -147 32 -26 65 -54 73 -61 23 -24 64 -15 156 32
84 42 330 199 368 233 34 32 47 41 57 41 6 0 14 6 18 13 4 6 26 25 47 41 44
33 33 39 101 -49 17 -21 36 -44 42 -51 7 -7 13 -17 13 -23 0 -6 3 -11 8 -11 4
0 30 -28 57 -62 103 -129 307 -339 400 -413 27 -22 55 -44 62 -50 43 -35 85
-63 94 -61 4 1 15 -7 25 -16 49 -44 136 -51 208 -17 44 20 139 113 169 165 23
40 71 129 72 134 1 3 12 28 24 55 41 89 106 289 126 385 2 8 4 17 5 20 1 3 3
10 5 15 1 6 3 12 4 15 4 8 12 47 30 145 6 33 13 71 16 85 3 14 7 41 10 60 3
19 9 70 15 113 6 43 13 106 16 140 2 34 6 85 9 112 3 28 5 120 6 205 l1 155
50 40 c28 22 63 52 79 68 16 15 31 27 34 27 2 0 20 15 39 33 19 17 48 43 64
57 221 192 576 547 782 780 36 41 72 81 80 90 14 15 90 107 117 140 6 8 36 44
65 80 29 36 57 71 63 78 5 7 15 18 20 25 6 7 37 48 70 92 33 44 64 85 70 92 5
7 16 19 23 27 6 8 12 18 12 20 0 3 15 25 33 49 17 24 39 54 47 67 8 12 21 28
28 36 6 7 12 15 12 18 0 3 15 26 33 52 44 63 53 78 120 185 32 52 67 106 78
121 10 15 19 29 19 32 0 2 26 48 58 103 54 90 109 191 199 362 18 35 33 70 33
77 0 7 3 14 8 16 9 3 82 154 82 169 0 5 4 9 8 9 7 0 30 37 37 60 6 19 18 48
25 62 14 26 160 402 164 423 2 6 26 82 54 170 44 139 95 311 108 368 2 9 6 26
9 37 3 11 7 28 9 38 2 9 9 37 16 62 7 25 14 54 16 65 6 28 18 89 20 98 1 4 3
8 4 10 1 1 4 11 5 22 1 11 10 53 18 94 17 80 16 90 -11 90 -19 0 -76 6 -134
15 -63 10 -100 15 -158 21 -30 3 -75 8 -100 10 -25 3 -76 8 -115 10 -38 3 -92
8 -120 11 -74 8 -825 12 -825 5z"/>
</g>
</svg>
